<svg xmlns="http://www.w3.org/2000/svg" version="1.1" viewBox="578.72 846 650.26 291.65"><path d="M 1108 856 L 1108 866 1156.500 866 L 1205 866 1205 856 L 1205 846 1156.500 846 L 1108 846 1108 856 M 1145.539 920.050 C 1142.260 920.562, 1137.105 921.700, 1134.082 922.579 C 1131.059 923.457, 1126.316 925.315, 1123.543 926.708 C 1120.769 928.100, 1115.666 931.248, 1112.202 933.704 C 1108.738 936.160, 1103.496 941.089, 1100.553 944.657 C 1097.610 948.226, 1093.847 953.700, 1092.192 956.823 C 1090.537 959.945, 1088.195 965.425, 1086.988 969 C 1085.376 973.772, 1084.653 978.856, 1084.268 988.125 C 1083.862 997.897, 1084.130 1002.487, 1085.454 1008.437 C 1086.395 1012.665, 1089.209 1020.210, 1091.709 1025.204 C 1095.316 1032.409, 1097.930 1035.956, 1104.377 1042.394 C 1109.820 1047.829, 1114.809 1051.713, 1119.500 1054.166 C 1123.350 1056.180, 1129.650 1058.879, 1133.500 1060.164 C 1139.676 1062.225, 1142.383 1062.499, 1156.500 1062.492 C 1171.456 1062.484, 1173.022 1062.300, 1180.500 1059.676 C 1184.900 1058.132, 1191.697 1054.882, 1195.604 1052.454 C 1199.511 1050.026, 1205.884 1044.696, 1209.766 1040.610 C 1214.951 1035.151, 1218.047 1030.701, 1221.434 1023.840 C 1223.970 1018.703, 1226.701 1011.350, 1227.505 1007.500 C 1228.308 1003.650, 1228.973 996.314, 1228.983 991.197 C 1228.992 986.081, 1228.291 978.656, 1227.424 974.697 C 1226.557 970.739, 1223.774 963.256, 1221.239 958.068 C 1217.493 950.401, 1215.122 947.120, 1208.565 940.529 C 1202.566 934.498, 1198.396 931.335, 1192.287 928.179 C 1187.769 925.846, 1180.669 923.066, 1176.509 922.002 C 1172.349 920.938, 1165.020 919.854, 1160.222 919.594 C 1155.425 919.333, 1148.818 919.538, 1145.539 920.050 M 967.411 921.415 C 964.062 922.181, 958.512 924.227, 955.079 925.960 C 951.645 927.694, 946.814 931.134, 944.342 933.605 C 941.871 936.077, 938.441 941.107, 936.721 944.783 C 933.961 950.681, 933.587 952.530, 933.546 960.484 C 933.514 966.698, 934.061 971.107, 935.304 974.671 C 936.296 977.514, 938.959 981.943, 941.220 984.513 C 943.482 987.083, 947.042 990.264, 949.130 991.582 C 951.219 992.901, 955.757 995.099, 959.214 996.468 C 962.671 997.837, 971.350 1000.504, 978.500 1002.396 C 985.650 1004.287, 994.003 1006.772, 997.062 1007.918 C 1000.120 1009.065, 1004.064 1011.412, 1005.826 1013.134 C 1007.587 1014.856, 1009.303 1017.357, 1009.638 1018.692 C 1009.973 1020.027, 1010.011 1023.213, 1009.722 1025.772 C 1009.294 1029.569, 1008.464 1031.110, 1005.211 1034.144 C 1002.995 1036.211, 999.288 1038.401, 996.863 1039.075 C 994.463 1039.742, 988.845 1040.253, 984.377 1040.211 C 978.405 1040.155, 974.169 1039.435, 968.377 1037.492 C 964.045 1036.039, 958.925 1033.912, 957 1032.765 C 955.075 1031.619, 951.208 1028.953, 948.408 1026.840 C 945.607 1024.728, 943.068 1023, 942.766 1023 C 942.464 1023, 938.959 1026.837, 934.977 1031.527 C 927.797 1039.984, 927.754 1040.070, 929.619 1042.148 C 930.654 1043.300, 933.975 1045.926, 937 1047.983 C 940.025 1050.040, 944.837 1052.905, 947.693 1054.349 C 950.548 1055.794, 956.848 1058.137, 961.693 1059.556 C 967.755 1061.332, 973.929 1062.303, 981.500 1062.670 C 989.442 1063.055, 994.537 1062.768, 999.828 1061.639 C 1003.859 1060.779, 1009.597 1058.957, 1012.581 1057.592 C 1015.564 1056.226, 1020.476 1052.772, 1023.495 1049.916 C 1026.600 1046.980, 1030.072 1042.427, 1031.486 1039.438 C 1032.861 1036.531, 1034.406 1031.194, 1034.918 1027.578 C 1035.458 1023.763, 1035.490 1018.469, 1034.995 1014.963 C 1034.525 1011.641, 1033.190 1006.959, 1032.029 1004.559 C 1030.867 1002.159, 1027.745 998.164, 1025.091 995.682 C 1022.437 993.199, 1017.875 989.957, 1014.954 988.477 C 1012.033 986.996, 1007.810 985.129, 1005.571 984.327 C 1003.332 983.525, 995.672 981.308, 988.549 979.401 C 981.427 977.493, 973.025 974.777, 969.879 973.365 C 966.733 971.953, 963.186 969.762, 961.996 968.496 C 960.806 967.229, 959.468 964.575, 959.022 962.597 C 958.576 960.618, 958.589 957.313, 959.052 955.250 C 959.563 952.976, 961.256 950.249, 963.353 948.323 C 965.255 946.576, 968.541 944.666, 970.656 944.079 C 972.770 943.492, 977.681 943.009, 981.568 943.006 C 985.456 943.003, 991.081 943.725, 994.068 944.612 C 997.056 945.498, 1001.750 947.358, 1004.500 948.746 C 1007.250 950.134, 1011.393 952.566, 1013.706 954.152 L 1017.911 957.035 1021.789 951.767 C 1023.921 948.870, 1026.963 944.532, 1028.548 942.127 L 1031.429 937.754 1028.464 935.337 C 1026.834 934.007, 1021.450 930.916, 1016.500 928.466 C 1011.550 926.016, 1004.800 923.310, 1001.500 922.452 C 998.200 921.594, 990.550 920.696, 984.500 920.456 C 977.189 920.167, 971.458 920.488, 967.411 921.415 M 579.247 932.250 C 579.605 939.440, 580.532 944.888, 582.353 950.500 C 583.781 954.900, 586.648 961.368, 588.724 964.872 C 590.801 968.377, 595.057 974.037, 598.182 977.451 C 601.306 980.864, 606.079 985.185, 608.786 987.051 L 613.710 990.446 607.378 995.239 C 603.895 997.875, 598.849 1002.673, 596.163 1005.900 C 593.477 1009.127, 589.900 1014.183, 588.213 1017.134 C 586.527 1020.085, 583.932 1026.100, 582.447 1030.500 C 580.385 1036.607, 579.625 1041.162, 579.234 1049.750 L 578.721 1061 636.361 1061 L 694 1061 694 1048.500 L 694 1036 649 1036 C 624.250 1036, 604 1035.725, 604 1035.390 C 604 1035.054, 605.462 1032.023, 607.250 1028.653 C 609.038 1025.283, 612.981 1020.045, 616.013 1017.013 C 619.045 1013.981, 624.386 1009.983, 627.881 1008.128 C 631.377 1006.274, 636.546 1004.142, 639.368 1003.390 C 642.895 1002.451, 650.835 1002.020, 664.750 1002.012 L 685 1002 685 990.500 L 685 979 663.750 978.979 C 643.775 978.959, 642.083 978.811, 635.545 976.504 C 631.719 975.154, 626.182 972.391, 623.238 970.364 C 620.295 968.337, 616.066 964.614, 613.839 962.089 C 611.613 959.565, 608.714 955.377, 607.396 952.783 C 606.078 950.189, 605 947.827, 605 947.533 C 605 947.240, 625.025 947, 649.500 947 L 694 947 694 934.500 L 694 922 636.369 922 L 578.738 922 579.247 932.250 M 749 991.500 L 749 1061 761.500 1061 L 774 1061 774 1004 L 774 947 810 947 L 846 947 846 1004 L 846 1061 858.500 1061 L 871 1061 871 991.500 L 871 922 810 922 L 749 922 749 991.500 M 1143.500 944.404 C 1141.300 945.103, 1137.166 946.866, 1134.312 948.323 C 1131.459 949.779, 1126.956 953.139, 1124.306 955.789 C 1121.656 958.439, 1118.007 963.387, 1116.196 966.784 C 1114.385 970.181, 1112.258 976.007, 1111.469 979.730 C 1110.680 983.454, 1110.034 988.750, 1110.032 991.500 C 1110.031 994.250, 1110.701 999.346, 1111.521 1002.825 C 1112.341 1006.304, 1114.240 1011.704, 1115.742 1014.825 C 1117.257 1017.975, 1121.148 1023.201, 1124.486 1026.572 C 1128.020 1030.140, 1132.814 1033.733, 1136.112 1035.286 C 1139.198 1036.739, 1143.698 1038.383, 1146.112 1038.939 C 1148.525 1039.496, 1153.218 1039.962, 1156.540 1039.976 C 1159.862 1039.989, 1165.228 1039.310, 1168.465 1038.467 C 1171.702 1037.624, 1176.557 1035.733, 1179.255 1034.265 C 1181.952 1032.797, 1186.556 1029.006, 1189.486 1025.842 C 1192.416 1022.677, 1196.021 1017.534, 1197.498 1014.413 C 1198.974 1011.292, 1200.882 1005.310, 1201.738 1001.119 C 1203.025 994.815, 1203.099 992.043, 1202.166 985.056 C 1201.392 979.269, 1199.974 974.391, 1197.657 969.556 C 1195.798 965.675, 1192.422 960.414, 1190.154 957.864 C 1187.887 955.315, 1183.773 951.780, 1181.014 950.009 C 1178.254 948.238, 1173.257 945.937, 1169.909 944.895 C 1165.904 943.648, 1161.030 943.023, 1155.661 943.067 C 1151.172 943.104, 1145.700 943.705, 1143.500 944.404 M 627 1126 C 627 1136.255, 627.133 1137, 628.958 1137 C 630.703 1137, 630.948 1136.180, 631.208 1129.452 L 631.500 1121.903 637.305 1129.452 C 640.497 1133.603, 643.760 1137, 644.555 1137 C 645.728 1137, 646 1134.926, 646 1126 C 646 1116.889, 645.742 1115, 644.500 1115 C 643.289 1115, 643 1116.573, 643 1123.156 L 643 1131.312 636.754 1123.156 C 633.128 1118.421, 629.773 1115, 628.754 1115 C 627.188 1115, 627 1116.180, 627 1126 M 659 1126 C 659 1135.111, 659.258 1137, 660.500 1137 C 661.742 1137, 662 1135.111, 662 1126 C 662 1116.889, 661.742 1115, 660.500 1115 C 659.258 1115, 659 1116.889, 659 1126 M 675 1126 C 675 1135.111, 675.258 1137, 676.500 1137 C 677.482 1137, 678 1136.017, 678 1134.155 C 678 1132.590, 678.854 1130.537, 679.898 1129.592 C 681.717 1127.946, 681.955 1128.065, 685.610 1132.437 C 688.200 1135.537, 690.196 1137, 691.833 1137 C 694.107 1137, 693.982 1136.695, 689.621 1131.591 C 687.080 1128.615, 685 1125.782, 685 1125.293 C 685 1124.805, 686.800 1122.648, 689 1120.500 C 691.200 1118.352, 693 1116.235, 693 1115.797 C 693 1115.359, 692.226 1115, 691.279 1115 C 690.332 1115, 686.957 1117.573, 683.779 1120.719 L 678 1126.437 678 1120.719 C 678 1116.302, 677.658 1115, 676.500 1115 C 675.258 1115, 675 1116.889, 675 1126 M 704 1126 C 704 1136.333, 704.121 1137, 706 1137 C 707.605 1137, 708 1136.333, 708 1133.622 C 708 1131.749, 708.711 1129.655, 709.597 1128.919 C 710.981 1127.771, 711.753 1128.237, 715.375 1132.413 C 718.156 1135.618, 720.177 1137.110, 721.410 1136.866 C 722.984 1136.555, 722.540 1135.612, 718.461 1130.608 L 713.659 1124.716 718.329 1120.303 C 720.898 1117.876, 723 1115.690, 723 1115.445 C 723 1115.200, 722.226 1115, 721.279 1115 C 720.332 1115, 716.957 1117.573, 713.779 1120.719 L 708 1126.437 708 1120.719 C 708 1115.667, 707.767 1115, 706 1115 C 704.121 1115, 704 1115.667, 704 1126 M 734 1126 L 734 1137 741.500 1137 C 747.500 1137, 749 1136.700, 749 1135.500 C 749 1134.333, 747.667 1134, 743 1134 L 737 1134 737 1131 C 737 1128.030, 737.056 1128, 742.500 1128 C 746.722 1128, 748 1127.652, 748 1126.500 C 748 1125.348, 746.722 1125, 742.500 1125 L 737 1125 737 1121.500 L 737 1118 743.500 1118 C 748.611 1118, 750 1117.679, 750 1116.500 C 750 1115.292, 748.444 1115, 742 1115 L 734 1115 734 1126 M 760 1126 C 760 1135.111, 760.258 1137, 761.500 1137 C 762.742 1137, 763 1135.111, 763 1126 C 763 1116.889, 762.742 1115, 761.500 1115 C 760.258 1115, 760 1116.889, 760 1126 M 802 1123 C 802 1129.564, 801.654 1131.346, 800.074 1132.926 C 798.819 1134.181, 797.380 1134.651, 795.941 1134.274 C 794.727 1133.957, 793.516 1132.865, 793.250 1131.849 C 792.984 1130.832, 791.871 1130, 790.776 1130 C 789.372 1130, 788.965 1130.466, 789.393 1131.582 C 789.727 1132.452, 790 1133.565, 790 1134.056 C 790 1134.547, 791.383 1135.664, 793.073 1136.538 C 795.022 1137.546, 797.216 1137.892, 799.072 1137.484 C 800.681 1137.131, 802.673 1135.877, 803.499 1134.698 C 804.557 1133.188, 805 1129.964, 805 1123.777 C 805 1116.642, 804.719 1115, 803.500 1115 C 802.292 1115, 802 1116.556, 802 1123 M 821.520 1116.750 C 821.139 1117.713, 819.310 1122.662, 817.457 1127.750 C 814.369 1136.224, 814.242 1137, 815.945 1137 C 817.112 1137, 818.194 1135.882, 818.850 1134 C 819.774 1131.349, 820.356 1131, 823.850 1131 C 827.345 1131, 827.926 1131.349, 828.850 1134 C 829.544 1135.990, 830.572 1137, 831.903 1137 C 833.857 1137, 833.842 1136.821, 831.339 1130.250 C 829.925 1126.537, 828.103 1121.588, 827.290 1119.250 C 826.289 1116.373, 825.231 1115, 824.013 1115 C 823.024 1115, 821.902 1115.787, 821.520 1116.750 M 843 1126 C 843 1136.333, 843.121 1137, 845 1137 C 846.695 1137, 847 1136.333, 847 1132.631 C 847 1128.384, 847.101 1128.245, 850.624 1127.674 C 852.617 1127.350, 855.092 1126.322, 856.124 1125.388 C 857.156 1124.454, 858 1122.435, 858 1120.902 C 858 1119.154, 857.171 1117.532, 855.777 1116.557 C 854.448 1115.625, 851.436 1115, 848.277 1115 L 843 1115 843 1126 M 870.494 1116.250 C 870.251 1116.938, 868.465 1121.701, 866.526 1126.836 C 864.587 1131.970, 863 1136.358, 863 1136.586 C 863 1136.814, 863.856 1137, 864.902 1137 C 866.117 1137, 867.182 1135.915, 867.850 1134 C 868.774 1131.349, 869.356 1131, 872.850 1131 C 876.345 1131, 876.926 1131.349, 877.850 1134 C 878.425 1135.650, 879.594 1137, 880.448 1137 C 881.302 1137, 882.001 1136.662, 882.002 1136.250 C 882.003 1135.838, 880.333 1130.888, 878.290 1125.250 C 875.433 1117.368, 874.155 1115, 872.756 1115 C 871.756 1115, 870.738 1115.563, 870.494 1116.250 M 892 1126 C 892 1136.333, 892.121 1137, 894 1137 C 895.825 1137, 896 1136.333, 896 1129.364 L 896 1121.728 902.021 1129.364 C 905.332 1133.564, 908.707 1137, 909.521 1137 C 910.737 1137, 911 1135.043, 911 1126 C 911 1117.024, 910.731 1115, 909.540 1115 C 908.406 1115, 908.016 1116.790, 907.790 1123.024 L 907.500 1131.049 901.500 1123.064 C 898.094 1118.531, 894.743 1115.062, 893.750 1115.040 C 892.187 1115.004, 892 1116.175, 892 1126 M 923 1126 L 923 1137 931 1137 C 937.444 1137, 939 1136.708, 939 1135.500 C 939 1134.333, 937.667 1134, 933 1134 C 927.024 1134, 927 1133.988, 927 1131.052 C 927 1128.208, 927.181 1128.094, 932.171 1127.802 C 935.186 1127.626, 937.515 1126.979, 937.755 1126.250 C 938.051 1125.350, 936.603 1125, 932.583 1125 L 927 1125 927 1121.500 L 927 1118 933 1118 C 937.667 1118, 939 1117.667, 939 1116.500 C 939 1115.292, 937.444 1115, 931 1115 L 923 1115 923 1126 M 950.223 1116.557 C 948.819 1117.540, 948 1119.153, 948 1120.934 C 948 1122.486, 948.661 1124.303, 949.468 1124.974 C 950.276 1125.644, 952.863 1126.761, 955.218 1127.457 C 958.713 1128.488, 959.500 1129.160, 959.500 1131.110 C 959.500 1133.090, 958.926 1133.555, 956.156 1133.820 C 954.011 1134.026, 952.121 1133.515, 950.883 1132.394 C 949.610 1131.242, 948.616 1130.984, 947.963 1131.637 C 947.310 1132.290, 947.848 1133.448, 949.543 1135.041 C 951.387 1136.772, 953.257 1137.455, 956.163 1137.455 C 959.202 1137.455, 960.686 1136.871, 962.107 1135.116 C 963.148 1133.831, 964 1131.758, 964 1130.512 C 964 1129.265, 963.339 1127.697, 962.532 1127.026 C 961.724 1126.356, 959.137 1125.241, 956.782 1124.549 C 953.705 1123.644, 952.411 1122.696, 952.185 1121.180 C 951.952 1119.620, 952.540 1118.903, 954.442 1118.425 C 956.074 1118.016, 957.907 1118.365, 959.455 1119.379 C 961.225 1120.538, 962.091 1120.661, 962.607 1119.827 C 963.005 1119.183, 962.319 1117.867, 961.048 1116.838 C 959.800 1115.827, 957.353 1115, 955.612 1115 C 953.870 1115, 951.445 1115.701, 950.223 1116.557 M 975 1126 L 975 1137 982.500 1137 C 988.500 1137, 990 1136.700, 990 1135.500 C 990 1134.333, 988.667 1134, 984 1134 L 978 1134 978 1131 C 978 1128.030, 978.056 1128, 983.500 1128 C 987.722 1128, 989 1127.652, 989 1126.500 C 989 1125.348, 987.722 1125, 983.500 1125 L 978 1125 978 1121.500 L 978 1118 984.500 1118 C 989.611 1118, 991 1117.679, 991 1116.500 C 991 1115.292, 989.444 1115, 983 1115 L 975 1115 975 1126 M 1016.923 1117.923 C 1014.472 1120.374, 1014 1121.653, 1014 1125.846 C 1014 1129.718, 1014.563 1131.516, 1016.494 1133.811 C 1017.976 1135.572, 1020.391 1137.038, 1022.442 1137.423 C 1024.595 1137.827, 1027.202 1137.525, 1029.367 1136.620 C 1031.277 1135.822, 1033.325 1134.261, 1033.920 1133.150 C 1034.514 1132.040, 1035 1130.652, 1035 1130.066 C 1035 1129.480, 1034.502 1129, 1033.894 1129 C 1033.286 1129, 1031.903 1130.125, 1030.821 1131.500 C 1029.355 1133.365, 1027.920 1133.996, 1025.177 1133.985 C 1023.155 1133.976, 1021.005 1133.639, 1020.400 1133.235 C 1019.795 1132.831, 1018.782 1131.517, 1018.150 1130.316 C 1017.517 1129.114, 1017 1126.956, 1017 1125.520 C 1017 1124.081, 1018.102 1121.807, 1019.455 1120.455 C 1021.003 1118.907, 1023.051 1118, 1025.002 1118 C 1027.017 1118, 1028.903 1118.872, 1030.412 1120.500 C 1031.687 1121.875, 1033.240 1123, 1033.865 1123 C 1034.489 1123, 1035 1122.365, 1035 1121.589 C 1035 1120.813, 1033.615 1119.013, 1031.923 1117.589 C 1029.611 1115.643, 1027.729 1115, 1024.346 1115 C 1020.706 1115, 1019.288 1115.558, 1016.923 1117.923 M 1045 1122.032 C 1045 1125.900, 1045.631 1130.576, 1046.403 1132.423 C 1047.404 1134.819, 1048.808 1136.112, 1051.303 1136.935 C 1053.225 1137.569, 1055.976 1137.793, 1057.415 1137.432 C 1058.854 1137.071, 1060.925 1135.640, 1062.016 1134.253 C 1063.636 1132.194, 1064 1130.194, 1064 1123.365 C 1064 1116.596, 1063.714 1115, 1062.500 1115 C 1061.316 1115, 1060.997 1116.423, 1060.985 1121.750 C 1060.977 1125.463, 1060.404 1129.625, 1059.712 1131 C 1058.807 1132.799, 1057.492 1133.592, 1055.021 1133.829 C 1052.615 1134.059, 1051.201 1133.628, 1050.294 1132.388 C 1049.497 1131.297, 1049 1127.620, 1049 1122.809 C 1049 1115.667, 1048.829 1115, 1047 1115 C 1045.190 1115, 1045 1115.667, 1045 1122.032 M 1076 1126 C 1076 1136.333, 1076.121 1137, 1078 1137 C 1079.879 1137, 1080 1136.333, 1080 1126 C 1080 1115.667, 1079.879 1115, 1078 1115 C 1076.121 1115, 1076 1115.667, 1076 1126 M 1093.223 1116.557 C 1091.829 1117.532, 1091 1119.154, 1091 1120.902 C 1091 1122.435, 1091.787 1124.357, 1092.750 1125.172 C 1093.713 1125.988, 1096.440 1127.209, 1098.812 1127.886 C 1102.391 1128.908, 1103.071 1129.490, 1102.812 1131.309 C 1102.573 1132.984, 1101.712 1133.575, 1099.156 1133.820 C 1097.060 1134.021, 1095.125 1133.519, 1093.969 1132.472 C 1092.956 1131.555, 1091.646 1131.100, 1091.060 1131.463 C 1090.337 1131.910, 1090.314 1132.718, 1090.990 1133.981 C 1091.537 1135.003, 1093.477 1136.332, 1095.301 1136.934 C 1097.730 1137.736, 1099.492 1137.724, 1101.880 1136.892 C 1103.747 1136.241, 1105.529 1134.738, 1106.047 1133.377 C 1106.591 1131.946, 1106.581 1130.027, 1106.020 1128.554 C 1105.368 1126.838, 1103.807 1125.744, 1100.795 1124.890 C 1098.433 1124.221, 1095.864 1123.094, 1095.086 1122.387 C 1093.927 1121.332, 1093.904 1120.821, 1094.958 1119.550 C 1095.666 1118.698, 1097.283 1118, 1098.551 1118 C 1099.819 1118, 1101.593 1118.736, 1102.493 1119.636 C 1103.768 1120.911, 1104.390 1121.005, 1105.314 1120.065 C 1106.232 1119.131, 1105.966 1118.422, 1104.139 1116.929 C 1102.841 1115.868, 1100.353 1115, 1098.612 1115 C 1096.870 1115, 1094.445 1115.701, 1093.223 1116.557 M 1118 1126 C 1118 1135.111, 1118.258 1137, 1119.500 1137 C 1120.742 1137, 1121 1135.111, 1121 1126 C 1121 1116.889, 1120.742 1115, 1119.500 1115 C 1118.258 1115, 1118 1116.889, 1118 1126 M 1134 1126 C 1134 1134.970, 1134.269 1137, 1135.458 1137 C 1136.583 1137, 1136.983 1135.251, 1137.208 1129.347 L 1137.500 1121.694 1143.356 1129.347 C 1147.015 1134.130, 1149.922 1137, 1151.106 1137 C 1152.850 1137, 1153 1136.128, 1153 1126 C 1153 1115.745, 1152.867 1115, 1151.042 1115 C 1149.293 1115, 1149.053 1115.821, 1148.792 1122.696 L 1148.500 1130.391 1142.611 1122.696 C 1139.373 1118.463, 1136.110 1115, 1135.361 1115 C 1134.295 1115, 1134 1117.387, 1134 1126 M 1165 1126 L 1165 1137 1172.500 1137 C 1178.500 1137, 1180 1136.700, 1180 1135.500 C 1180 1134.333, 1178.667 1134, 1174 1134 L 1168 1134 1168 1131 C 1168 1128.030, 1168.056 1128, 1173.500 1128 C 1177.722 1128, 1179 1127.652, 1179 1126.500 C 1179 1125.348, 1177.722 1125, 1173.500 1125 L 1168 1125 1168 1121.500 L 1168 1118 1174.500 1118 C 1179.611 1118, 1181 1117.679, 1181 1116.500 C 1181 1115.292, 1179.444 1115, 1173 1115 L 1165 1115 1165 1126 M 847 1121.437 C 847 1124.470, 847.335 1124.998, 849.250 1124.985 C 850.487 1124.976, 852.102 1124.588, 852.837 1124.122 C 853.573 1123.655, 854.023 1122.200, 853.837 1120.887 C 853.572 1119.012, 852.803 1118.433, 850.250 1118.187 C 847.133 1117.886, 847 1118.019, 847 1121.437 M 822.269 1124.475 C 821.204 1127.944, 821.233 1128, 824.072 1128 C 826.836 1128, 826.908 1127.885, 825.789 1125.250 C 825.146 1123.737, 824.335 1122.151, 823.985 1121.725 C 823.636 1121.299, 822.864 1122.537, 822.269 1124.475 M 871.124 1124.073 C 870.506 1125.847, 870 1127.456, 870 1127.649 C 870 1127.842, 871.174 1128, 872.608 1128 C 874.952 1128, 875.148 1127.721, 874.538 1125.250 C 874.164 1123.737, 873.496 1122.128, 873.053 1121.674 C 872.611 1121.220, 871.743 1122.300, 871.124 1124.073" stroke="none" fill="#fffcfc" fill-rule="evenodd"></path><path d="" stroke="none" fill="#fcfcfc" fill-rule="evenodd"></path></svg>
